Coordinates
version=1
nRows=6
nColumns=34
inDegrees=yes

Units are S.I. units (second, meters, Newtons, ...)
Angles are in degrees.

endheader
time	pelvis_tilt	pelvis_list	pelvis_rotation	pelvis_tx	pelvis_ty	pelvis_tz	hip_flexion_r	hip_adduction_r	hip_rotation_r	knee_angle_r	ankle_angle_r	subtalar_angle_r	mtp_angle_r	hip_flexion_l	hip_adduction_l	hip_rotation_l	knee_angle_l	socket_flexion	socket_adduction	socket_rotation	socket_tx	socket_ty	socket_tz	pros_ankle_rx	pros_ankle_ry	pros_ankle_rz	pros_ankle_tx	pros_ankle_ty	pros_ankle_tz	foot_flex	lumbar_extension	lumbar_bending	lumbar_rotation
      0.29583333	      1.18381746	     -2.04410892	      0.81897507	     -0.36950068	      1.05329448	      0.37052480	      9.97346367	     -1.68109612	     -9.25656643	    -62.43455739	     -0.53606843	      5.11754887	     15.99929206	     10.34182504	     -1.74574336	     -2.41374607	    -21.61808964	      0.00000000	      0.00000000	      0.00000000	      0.00000000	      0.00000000	      0.00000000	      0.00000000	      0.00000000	      0.00000000	      0.00000000	      0.00000000	      0.00000000	      6.85157447	    -12.73259608	     -8.71099909	    -21.78644487
      0.30000000	      1.27773477	     -2.14954673	      0.86115278	     -0.36390269	      1.05419649	      0.37027096	     10.37881441	     -1.57365533	     -9.33629001	    -62.19427696	      0.29671845	      5.10689176	     16.06723068	      9.77818176	     -1.84255434	     -2.37851787	    -21.38454788	      0.00000000	      0.00000000	      0.00000000	      0.00000000	      0.00000000	      0.00000000	      0.00000000	      0.00000000	      0.00000000	      0.00000000	      0.00000000	      0.00000000	      7.00033099	    -12.70964697	     -8.52491162	    -21.90190505
      0.30416667	      1.42839939	     -2.25240224	      0.91204768	     -0.35844461	      1.05512601	      0.36997640	     10.72546243	     -1.48157985	     -9.42854503	    -61.93212461	      1.26697282	      5.40770638	     16.11598622	      9.17648434	     -1.93530046	     -2.34402977	    -21.18436466	      0.00000000	      0.00000000	      0.00000000	      0.00000000	      0.00000000	      0.00000000	      0.00000000	      0.00000000	      0.00000000	      0.00000000	      0.00000000	      0.00000000	      7.17019456	    -12.94079052	     -8.36598694	    -22.07695284
      0.30833333	      1.51390075	     -2.36295241	      0.95380734	     -0.35285603	      1.05601697	      0.36973072	     11.11517594	     -1.39165008	     -9.56167781	    -61.56649212	      1.92947092	      5.41808401	     16.14968560	      8.61295558	     -2.03808166	     -2.30718112	    -20.93518342	      0.00000000	      0.00000000	      0.00000000	      0.00000000	      0.00000000	      0.00000000	      0.00000000	      0.00000000	      0.00000000	      0.00000000	      0.00000000	      0.00000000	      7.27320059	    -12.85764152	     -8.20320813	    -22.16938206
      0.31250000	      1.50733944	     -2.43006815	      0.98024177	     -0.34740934	      1.05667378	      0.36946088	     11.63166059	     -1.36223397	     -9.67911661	    -61.19405427	      2.21211097	      5.41024312	     16.16345669	      8.18467267	     -2.09108550	     -2.28135567	    -20.74239158	      0.00000000	      0.00000000	      0.00000000	      0.00000000	      0.00000000	      0.00000000	      0.00000000	      0.00000000	      0.00000000	      0.00000000	      0.00000000	      0.00000000	      7.42751922	    -12.92600804	     -8.14606598	    -22.20185530
      0.31666667	      1.66545742	     -2.63192725	      1.03506998	     -0.34190492	      1.05766105	      0.36924903	     11.89707079	     -1.11040321	     -9.76161700	    -60.71696670	      3.42000452	      5.58420768	     16.21182489	      7.56200489	     -2.30427107	     -2.24860931	    -20.51244101	      0.00000000	      0.00000000	      0.00000000	      0.00000000	      0.00000000	      0.00000000	      0.00000000	      0.00000000	      0.00000000	      0.00000000	      0.00000000	      0.00000000	      7.54512368	    -12.92476157	     -7.79108973	    -22.39009285
